<?xml version="1.0" encoding="utf-8"?>
<!-- Generator: Adobe Illustrator 25.2.1, SVG Export Plug-In . SVG Version: 6.00 Build 0)  -->
<svg version="1.1" id="Layer_1" xmlns="http://www.w3.org/2000/svg" xmlns:xlink="http://www.w3.org/1999/xlink" x="0px" y="0px"
	 viewBox="0 0 200 142.56" enable-background="new 0 0 200 142.56" xml:space="preserve">
<g>
	<g>
		<path fill="#FFBF00" d="M98.54,82.11c-0.07,0.1-0.14,0.2-0.21,0.3C98.4,82.31,98.47,82.21,98.54,82.11z"/>
		<path fill="#FFBF00" d="M137.32,94.97c0.02,0.32,0.05,0.63,0.09,0.94C137.37,95.61,137.34,95.29,137.32,94.97z"/>
		<path fill="#FFBF00" d="M97.74,83.32c-0.11,0.18-0.23,0.37-0.34,0.55C97.51,83.69,97.62,83.51,97.74,83.32z"/>
		<path fill="#FFBF00" d="M108.02,73.85c-0.13,0.05-0.25,0.1-0.38,0.16C107.77,73.96,107.89,73.9,108.02,73.85z"/>
		<path fill="#FFBF00" d="M159.94,84.62c0.04-0.07,0.09-0.14,0.13-0.2C160.02,84.48,159.98,84.55,159.94,84.62z"/>
		<path fill="#FFBF00" d="M137.38,92.62c0.02-0.18,0.03-0.36,0.05-0.54C137.41,92.26,137.4,92.44,137.38,92.62z"/>
		<path fill="#FFBF00" d="M107.44,74.1c-0.14,0.06-0.28,0.13-0.41,0.2C107.16,74.23,107.3,74.16,107.44,74.1z"/>
		<path fill="#FFBF00" d="M105.52,94.37l1.14,0.76c0.51-0.4,0.95-0.98,1.16-1.79l0.01-0.02l0.01-0.02
			c0.02-0.08,2.32-7.87,4.66-14.02l0.02-0.04l0.02-0.04c0.17-0.39,0.14-0.59,0.13-0.62c-0.01-0.01-0.08-0.05-0.22-0.05
			c-1.97,0-5.96,2.42-8.3,8.91l-0.01,0.02l-0.01,0.02c-0.5,1.3-0.86,2.54-1.08,3.65l2.12,2.16L105.52,94.37z"/>
		<path fill="#FFBF00" d="M159.02,85.9c0.05-0.06,0.09-0.12,0.14-0.18C159.11,85.79,159.07,85.85,159.02,85.9z"/>
		<path fill="#FFBF00" d="M146.85,76.47c-0.01,0.01-0.03,0.02-0.04,0.03C146.82,76.49,146.83,76.48,146.85,76.47z"/>
		<path fill="#FFBF00" d="M108.63,73.63c-0.14,0.05-0.27,0.09-0.41,0.14C108.36,73.72,108.5,73.68,108.63,73.63z"/>
		<path fill="#FFBF00" d="M159.49,85.27c0.05-0.06,0.09-0.13,0.14-0.19C159.58,85.14,159.54,85.2,159.49,85.27z"/>
		<path fill="#FFBF00" d="M147.67,75.88c-0.01,0.01-0.02,0.01-0.02,0.02C147.65,75.89,147.66,75.89,147.67,75.88z"/>
		<path fill="#FFBF00" d="M137.34,93.05c-0.01,0.19-0.02,0.38-0.02,0.58C137.32,93.44,137.32,93.24,137.34,93.05z"/>
		<path fill="#FFBF00" d="M148.51,75.33c0,0-0.01,0.01-0.01,0.01C148.51,75.34,148.51,75.33,148.51,75.33z"/>
		<path fill="#FFBF00" d="M137.32,94.66c-0.01-0.21-0.02-0.42-0.02-0.64C137.3,94.23,137.31,94.44,137.32,94.66z"/>
		<path fill="#FFBF00" d="M149.38,74.83C149.38,74.83,149.38,74.83,149.38,74.83C149.38,74.83,149.38,74.83,149.38,74.83z"/>
		<path fill="#FFBF00" d="M95.07,75.16L95.07,75.16c0.27-0.55,0.55-1.1,0.83-1.64C95.62,74.07,95.34,74.62,95.07,75.16z"/>
		<path fill="#FFBF00" d="M106.16,74.75c-0.14,0.08-0.27,0.16-0.4,0.24C105.89,74.9,106.03,74.83,106.16,74.75z"/>
		<path fill="#FFBF00" d="M106.87,74.37c-0.19,0.09-0.37,0.19-0.55,0.29C106.5,74.56,106.68,74.46,106.87,74.37z"/>
		<path fill="#FFBF00" d="M104.99,75.48c-0.12,0.08-0.24,0.16-0.36,0.25C104.75,75.65,104.87,75.56,104.99,75.48z"/>
		<path fill="#FFBF00" d="M105.55,75.12c-0.12,0.07-0.23,0.15-0.35,0.22C105.32,75.26,105.43,75.19,105.55,75.12z"/>
		<path fill="#FFBF00" d="M102.15,77.82c-0.12,0.12-0.24,0.23-0.35,0.35C101.91,78.05,102.03,77.93,102.15,77.82z"/>
		<path fill="#FFBF00" d="M100.49,79.58c-0.08,0.1-0.17,0.2-0.25,0.29C100.33,79.77,100.41,79.67,100.49,79.58z"/>
		<path fill="#FFBF00" d="M100.03,80.13c-0.09,0.11-0.17,0.21-0.26,0.32C99.86,80.34,99.94,80.24,100.03,80.13z"/>
		<path fill="#FFBF00" d="M100.98,79.03c-0.09,0.1-0.18,0.2-0.27,0.3C100.8,79.22,100.89,79.12,100.98,79.03z"/>
		<path fill="#FFBF00" d="M101.56,78.4c-0.13,0.13-0.25,0.26-0.38,0.39C101.31,78.66,101.44,78.53,101.56,78.4z"/>
		<path fill="#FFBF00" d="M103.19,76.87c-0.1,0.09-0.21,0.18-0.31,0.27C102.98,77.05,103.09,76.96,103.19,76.87z"/>
		<path fill="#FFBF00" d="M111.16,73.1c-0.13,0.01-0.27,0.02-0.4,0.04C110.89,73.12,111.02,73.11,111.16,73.1z"/>
		<path fill="#FFBF00" d="M110.55,73.17c-0.13,0.02-0.26,0.04-0.39,0.07C110.28,73.21,110.41,73.19,110.55,73.17z"/>
		<path fill="#FFBF00" d="M104.44,75.87c-0.17,0.13-0.35,0.26-0.52,0.39C104.1,76.13,104.27,76,104.44,75.87z"/>
		<path fill="#FFBF00" d="M109.96,73.27c-0.16,0.03-0.32,0.07-0.48,0.11C109.64,73.34,109.8,73.3,109.96,73.27z"/>
		<path fill="#FFBF00" d="M111.92,73.07c-0.19,0-0.39,0.01-0.58,0.02C111.54,73.07,111.73,73.07,111.92,73.07z"/>
		<path fill="#FFBF00" d="M103.79,76.37c-0.13,0.11-0.26,0.21-0.39,0.32C103.53,76.58,103.66,76.47,103.79,76.37z"/>
		<path fill="#FFBF00" d="M102.66,77.34c-0.1,0.09-0.2,0.19-0.3,0.28C102.46,77.52,102.56,77.43,102.66,77.34z"/>
		<path fill="#FFBF00" d="M109.38,73.41c-0.19,0.05-0.38,0.11-0.57,0.17C108.99,73.51,109.19,73.46,109.38,73.41z"/>
		<path fill="#FFBF00" d="M102.2,88.02c-0.12,0.36-0.23,0.72-0.33,1.06C101.97,88.73,102.08,88.38,102.2,88.02z"/>
		<path fill="#FFBF00" d="M163.52,88.15c0.42-0.65,0.84-1.32,1.26-2.02C164.36,86.83,163.94,87.5,163.52,88.15z"/>
		<path fill="#FFBF00" d="M152,83.38c-0.78,1.28-1.51,2.65-2.11,3.93c3.78-2.66,7.32-6.33,7.1-9.1
			C156.09,78.29,154.28,79.68,152,83.38z"/>
		<path fill="#FFBF00" d="M167.71,92.35c0.05-0.06,0.09-0.11,0.14-0.17C167.8,92.24,167.75,92.29,167.71,92.35z"/>
		<path fill="#FFBF00" d="M146.25,95.04c0.2-0.06,0.4-0.13,0.61-0.21C146.65,94.91,146.45,94.98,146.25,95.04z"/>
		<path fill="#FFBF00" d="M153.86,90.93c0.1-0.07,0.19-0.15,0.29-0.22C154.05,90.78,153.95,90.86,153.86,90.93z"/>
		<path fill="#FFBF00" d="M147.49,94.59c-0.14,0.06-0.28,0.11-0.42,0.16C147.21,94.7,147.35,94.65,147.49,94.59z"/>
		<path fill="#FFBF00" d="M170.02,88.95c-0.01,0.01-0.01,0.02-0.02,0.03C170.01,88.97,170.01,88.96,170.02,88.95z"/>
		<path fill="#FFBF00" d="M160.35,83.95c0.04-0.07,0.08-0.14,0.12-0.21C160.43,83.81,160.39,83.88,160.35,83.95z"/>
		<path fill="#FFBF00" d="M154.52,90.41c0.09-0.07,0.17-0.14,0.26-0.21C154.69,90.27,154.61,90.35,154.52,90.41z"/>
		<path fill="#FFBF00" d="M153.19,91.42c0.1-0.07,0.2-0.15,0.3-0.22C153.39,91.28,153.29,91.35,153.19,91.42z"/>
		<polygon fill="#FFBF00" points="182.49,95.6 182.49,95.6 182.49,95.6 		"/>
		<path fill="#FFBF00" d="M169.49,89.83c-0.02,0.03-0.04,0.06-0.05,0.09C169.45,89.89,169.47,89.86,169.49,89.83z"/>
		<path fill="#FFBF00" d="M181.65,97.78c-0.01,0.03-0.03,0.06-0.04,0.09C181.62,97.83,181.63,97.81,181.65,97.78z"/>
		<path fill="#FFBF00" d="M91.69,72.7L91.69,72.7c0.09-0.02,0.17-0.03,0.26-0.05C91.86,72.66,91.77,72.68,91.69,72.7z"/>
		<path fill="#FFBF00" d="M169.29,100.68c2.75-1.35,3.51-5.21,3.72-7.08c0.12-1.41,0.09-2.73-0.07-4.03
			c-0.09-0.68-0.21-1.33-0.36-1.93c-0.9,1.79-1.99,3.63-3.16,5.16c1.28,1.52,1.64,3.5,1,5.65
			C170.17,99.35,169.78,100.08,169.29,100.68z"/>
		<path fill="#FFBF00" d="M170.53,88.05c-0.01,0.01-0.01,0.02-0.02,0.04C170.51,88.08,170.52,88.07,170.53,88.05z"/>
		<path fill="#FFBF00" d="M168.36,91.5c-0.02,0.03-0.04,0.05-0.06,0.08C168.32,91.56,168.34,91.53,168.36,91.5z"/>
		<path fill="#FFBF00" d="M168.98,90.62c-0.03,0.05-0.06,0.1-0.1,0.15C168.91,90.72,168.95,90.67,168.98,90.62z"/>
		<path fill="#FFBF00" d="M152.5,91.89c0.11-0.07,0.21-0.15,0.32-0.22C152.72,91.75,152.61,91.82,152.5,91.89z"/>
		<path fill="#FFBF00" d="M161.98,79.76c0.01-0.06,0.02-0.12,0.03-0.18C162,79.64,161.99,79.7,161.98,79.76z"/>
		<path fill="#FFBF00" d="M162.08,79.04c0-0.04,0.01-0.09,0.01-0.13C162.09,78.96,162.09,79,162.08,79.04z"/>
		<path fill="#FFBF00" d="M161.82,80.48c0.02-0.07,0.03-0.13,0.05-0.2C161.85,80.34,161.84,80.41,161.82,80.48z"/>
		<path fill="#FFBF00" d="M158.06,87.07c0.02-0.02,0.04-0.05,0.07-0.07C158.1,87.02,158.08,87.05,158.06,87.07z"/>
		<path fill="#FFBF00" d="M161.06,82.58c0.03-0.07,0.07-0.15,0.1-0.22C161.13,82.44,161.09,82.51,161.06,82.58z"/>
		<path fill="#FFBF00" d="M158.54,86.51c0.04-0.05,0.08-0.09,0.12-0.14C158.62,86.42,158.58,86.47,158.54,86.51z"/>
		<path fill="#FFBF00" d="M160.72,83.27c0.04-0.07,0.08-0.15,0.11-0.22C160.8,83.13,160.76,83.2,160.72,83.27z"/>
		<path fill="#FFBF00" d="M161.61,81.18c0.02-0.07,0.04-0.14,0.07-0.21C161.66,81.04,161.63,81.11,161.61,81.18z"/>
		<path fill="#FFBF00" d="M161.36,81.89c0.03-0.07,0.05-0.14,0.08-0.22C161.41,81.74,161.39,81.82,161.36,81.89z"/>
		<path fill="#FFBF00" d="M151.14,92.76c0.11-0.07,0.23-0.14,0.34-0.21C151.36,92.63,151.25,92.7,151.14,92.76z"/>
		<path fill="#FFBF00" d="M149.09,93.88c0.12-0.06,0.24-0.12,0.36-0.18C149.33,93.76,149.21,93.82,149.09,93.88z"/>
		<path fill="#FFBF00" d="M150.45,93.16c0.12-0.07,0.23-0.13,0.35-0.2C150.68,93.03,150.57,93.1,150.45,93.16z"/>
		<path fill="#FFBF00" d="M149.77,93.53c0.12-0.06,0.24-0.12,0.36-0.19C150,93.41,149.89,93.47,149.77,93.53z"/>
		<path fill="#FFBF00" d="M151.82,92.34c0.11-0.07,0.22-0.14,0.33-0.21C152.04,92.2,151.93,92.27,151.82,92.34z"/>
		<path fill="#FFBF00" d="M155.81,89.33c0.04-0.04,0.09-0.08,0.13-0.12C155.9,89.25,155.86,89.29,155.81,89.33z"/>
		<path fill="#FFBF00" d="M155.18,89.88c0.07-0.06,0.14-0.12,0.22-0.19C155.32,89.75,155.25,89.82,155.18,89.88z"/>
		<path fill="#FFBF00" d="M147.75,94.49c0.13-0.05,0.25-0.1,0.38-0.16C148,94.38,147.87,94.43,147.75,94.49z"/>
		<path fill="#FFBF00" d="M148.42,94.2c0.12-0.06,0.25-0.11,0.37-0.17C148.66,94.09,148.54,94.14,148.42,94.2z"/>
		<path fill="#FFBF00" d="M116.65,105.7c0.02-0.01,0.05-0.03,0.07-0.04C116.69,105.67,116.67,105.69,116.65,105.7z"/>
		<path fill="#FFBF00" d="M161.69,90.78c-0.1,0.13-0.2,0.26-0.29,0.39C161.5,91.04,161.59,90.91,161.69,90.78z"/>
		<path fill="#FFBF00" d="M161.27,91.34c-0.09,0.11-0.17,0.22-0.26,0.33C161.1,91.56,161.18,91.45,161.27,91.34z"/>
		<path fill="#FFBF00" d="M160.87,91.83c-0.09,0.11-0.18,0.21-0.26,0.32C160.7,92.05,160.79,91.94,160.87,91.83z"/>
		<path fill="#FFBF00" d="M162.19,90.1c-0.13,0.19-0.27,0.37-0.4,0.55C161.92,90.47,162.06,90.29,162.19,90.1z"/>
		<path fill="#FFBF00" d="M160.12,92.72c0.12-0.14,0.25-0.28,0.37-0.43C160.37,92.44,160.25,92.58,160.12,92.72z"/>
		<path fill="#FFBF00" d="M163.43,88.28c-0.11,0.17-0.22,0.33-0.32,0.49C163.22,88.61,163.33,88.44,163.43,88.28z"/>
		<path fill="#FFBF00" d="M182.67,99.05c-0.04,0.02-0.08,0.04-0.12,0.06C182.59,99.09,182.63,99.07,182.67,99.05z"/>
		<path fill="#FFBF00" d="M162.59,89.53c-0.13,0.19-0.26,0.38-0.4,0.56C162.33,89.91,162.46,89.72,162.59,89.53z"/>
		<path fill="#FFBF00" d="M162.69,89.39c0.1-0.15,0.21-0.3,0.31-0.46C162.9,89.08,162.79,89.23,162.69,89.39z"/>
		<path fill="#FFBF00" d="M143.78,79.25c-0.04,0.04-0.07,0.08-0.11,0.12C143.71,79.33,143.74,79.29,143.78,79.25z"/>
		<path fill="#FFBF00" d="M140.6,83.45c-0.06,0.1-0.11,0.19-0.17,0.29C140.49,83.64,140.54,83.54,140.6,83.45z"/>
		<path fill="#FFBF00" d="M143.08,80.03c-0.04,0.05-0.08,0.1-0.13,0.15C143,80.13,143.04,80.08,143.08,80.03z"/>
		<path fill="#FFBF00" d="M141.77,81.69c-0.05,0.07-0.1,0.15-0.15,0.22C141.67,81.84,141.72,81.76,141.77,81.69z"/>
		<path fill="#FFBF00" d="M141.17,82.56c-0.06,0.08-0.11,0.17-0.16,0.25C141.06,82.73,141.11,82.64,141.17,82.56z"/>
		<path fill="#FFBF00" d="M144.42,78.59c0.03-0.03,0.06-0.06,0.09-0.09C144.48,78.53,144.45,78.56,144.42,78.59z"/>
		<path fill="#FFBF00" d="M145.26,77.79c-0.02,0.02-0.05,0.05-0.07,0.07C145.21,77.83,145.24,77.81,145.26,77.79z"/>
		<path fill="#FFBF00" d="M183.21,98.71c-0.1,0.07-0.19,0.13-0.29,0.19C183.02,98.84,183.11,98.78,183.21,98.71z"/>
		<path fill="#FFBF00" d="M146.04,77.11c-0.02,0.02-0.04,0.03-0.06,0.05C146.01,77.14,146.02,77.13,146.04,77.11z"/>
		<path fill="#FFBF00" d="M142.41,80.85c-0.05,0.06-0.09,0.12-0.14,0.18C142.32,80.97,142.36,80.91,142.41,80.85z"/>
		<path fill="#FFBF00" d="M136.84,57.64c-0.02,0.02-0.04,0.04-0.06,0.06C136.8,57.68,136.82,57.66,136.84,57.64z"/>
		<path fill="#FFBF00" d="M135.98,58.57c-0.04,0.04-0.07,0.09-0.11,0.14C135.91,58.66,135.95,58.62,135.98,58.57z"/>
		<polygon fill="#FFBF00" points="137.29,57.23 137.29,57.23 137.29,57.23 		"/>
		<path fill="#FFBF00" d="M135.21,59.64c-0.04,0.06-0.08,0.13-0.12,0.19C135.13,59.77,135.17,59.7,135.21,59.64z"/>
		<path fill="#FFBF00" d="M135.58,59.09c-0.04,0.06-0.08,0.11-0.12,0.17C135.5,59.2,135.54,59.15,135.58,59.09z"/>
		<path fill="#FFBF00" d="M136.4,58.09c-0.03,0.03-0.06,0.07-0.09,0.1C136.34,58.16,136.37,58.12,136.4,58.09z"/>
		<path fill="#FFBF00" d="M199.9,115.76l-3.1-2.52l-1.08-3.7l-1.66-1.52l0.4-0.76l-0.83-0.42l-0.38-1.23l0.01-0.87l-3.41-2.89
			c-0.38,0.41-0.78,0.81-1.2,1.19l-0.01,0.01l-0.01,0.01c-2.88,2.5-6.6,3.99-9.96,3.99c-1.44,0-2.75-0.24-3.96-0.73
			c-2.2,0.9-4.52,1.37-6.74,1.37c-2.01,0-3.92-0.4-5.66-1.18c-0.73-0.32-1.41-0.73-2.03-1.21c-2.94,1.51-6.43,2.31-10.16,2.31
			c-4.3,0-7.97-1.29-10.52-3.67c-2.51,1.87-5.39,2.88-8.6,2.99c-0.15,0.01-0.29,0.01-0.43,0.01c-3.15,0-5.87-1.24-7.62-3.4
			c-2.28,1.89-4.94,3.48-7.82,4.64c-0.27,1.19-0.53,2.34-0.79,3.46l1.29,0.27l0.83,1.2l6.42,0.11l0.83,0.44l2.97,0.33l1.07-0.33
			l1.9,0.55l1.43,1.31l1.19,0.44l0.95,2.07l0.83,0.65l2.14,0.54l0.24,0.11l1.55,0.32l0.48,0.22l3.21-0.22l0.95,0.43l1.19,2.4l0,0.44
			l-0.36,0.76l1.67,0.76l0.47-0.65l0.83-0.32l1.07,0.33l2.02,1.64l0.71,0.54l0.72,0.22l2.02,1.97l1.31,0.76l1.9,1.85l2.49,4.36
			l0.36,1.64l-0.36,0.98l0.59,1.31l-0.35,0.33l0,0.65l0.24,0.22l0.48-0.54l0.24-0.11l0.95,0.76l0.12,0.76l-0.95-0.76l-0.24,0
			l0.24,0.32l0.47,0.65l0,1.2l13.43-1.3l18.19-1.63l1.91-0.03l0.48-0.39l0.37-1.09l0.61-0.68l-0.01-1.85l-0.75-0.76l-1.66-0.11
			l-0.56-0.44l-0.12-0.77l0.23-2.06l-0.62-0.63l0.28-0.8l-0.12-0.72l0.47-0.37l1.16-1.07l-0.25-0.42l0.71-0.15l0.6-1.41l-0.25-1.05
			l0.37-0.47l-0.32-2.94l1.16-1.06l-0.13-0.33l0.53-0.97l3.17-2.52l0.71-0.25L199.9,115.76z"/>
		<path fill="#FFBF00" d="M64.66,23.32l-0.24,0.87l0.12,0.32l2.38,2.07l1.07,0.55l0.36,1.09l0.71,0.65l1.07,1.42l0.36,0.65
			l1.19,0.98l0,0.88l0.35,0.76l0.24,2.18l-0.36,0.88l-0.36,0.98l0,1.42l0.36,0.98l0.56,1.37c0.85-0.24,1.57-0.58,2.24-0.9
			c0.97-0.46,1.98-0.94,3.15-0.94c1.31,0,2.05,0.54,2.44,0.99c0.93,1.07,0.72,2.55,0.66,3.03c-0.27,1.95-1.75,3.16-2.23,3.55
			l-0.04,0.03c-0.48,0.43-1.09,1-1.71,1.59l0.52,0.76l1.19,1.64l0.83,0.54l1.66,0.98l0.71,1.75l0.48,0l0.71,0.54l0.24,0.44
			l0.72,1.09l-0.6,0l-0.36-0.44l-0.24,0.11l0.24,0.54l-0.48,2.51l0.12,0.33l0.59-0.33l0.12-0.54l0.36-0.33l0.24,0.65l0.59,0
			l0.59,0.44l0.35,0.55l0.6,0.33l0.71,0.44l0.36-0.22l0.95,0.77l0.95,0.65l0.36,0.11l-0.12-0.98l0.12,0l0.47,0.32l0.24-0.11
			l-0.48-0.77l-0.24-0.76l0.24-0.44l-0.59-0.33l0.36-1.3l-0.48-0.44l0.71,0.22l0.59-0.76l0.36,0.11l1.54,0.54l0,0.44l0.48,0.11
			l0.59,0.33l0.59,0.33l0,0.22l-0.36-0.11l-0.96-0.11l-0.47,0.55l-0.95,0l-0.59,0.98l1.31,0.98l0,0.32l0.12,1.09l0.36,0.54
			l1.42,0.98l0.6,1.74l0.35,0.76l1.54,0.98l-0.36,0.22l-0.35,0l-0.59-0.11l-0.12-0.22l-0.71-0.65l-1.07-0.44l-0.83-0.65l-1.19-0.33
			l0.12-0.65l-0.36-0.65l0.48-0.65l-0.24-0.22l0-0.65l-0.47,0l-0.48-0.11l-0.48,0.22l-0.47,0.22l0.36,1.2l-0.12,0.55l0.24,0.65
			l-0.47,0.22l0.24,1.42l0.48,0.11l0.24,0.32l0.23,1.09l0.36,0.11l0,0.87l-0.24,1.42l0.21,0.49c1.9-0.24,4.19-0.92,4.78-1.41
			c0.35-0.29,0.77-0.44,1.2-0.44c0.65,0,1.24,0.35,1.58,0.93c0.41,0.7,0.41,1.65,0.01,2.37c-0.44,0.78-0.86,1.57-1.26,2.37
			l0.84,0.39l0.95,1.09l0,1.64l-0.25,1.3c3.65-4.58,8.45-7.99,13.42-7.99l0.11,0c1.45,0,2.53,0.3,3.33,0.71
			c0.39-0.53,1.01-0.92,1.77-0.92c0.14,0,0.27,0.01,0.41,0.04c0.07,0.01,0.24,0.04,0.54,0.04c1.99,0,5.29-0.89,6.03-1.5
			c0.35-0.29,0.77-0.44,1.2-0.44c0.65,0,1.24,0.35,1.58,0.93c0.41,0.7,0.41,1.65,0.01,2.37c-4.74,8.43-7.54,17.7-9.73,26.67
			c1.41-0.81,2.63-1.66,3.68-2.55c0.02-1.21,0.18-2.4,0.49-3.54c0.6-2.89,3.36-10.34,7.39-19.98c0.27-0.94,1.11-1.82,2.3-1.82
			c0.11,0,0.22,0.01,0.33,0.02c0.19,0.03,0.41,0.04,0.66,0.04c2.22,0,5.36-0.97,6.17-1.73c0.47-0.44,0.97-0.53,1.31-0.53
			c0.62,0,1.21,0.33,1.55,0.87c0.44,0.69,0.49,1.7,0.13,2.48c-0.66,1.4-1.34,2.83-1.99,4.2c-2.64,5.52-5.37,11.23-6.92,16.4
			c-0.62,2.19,0.29,3.49,0.58,3.63l0.03,0.01l0.03,0.01c0.26,0.12,0.51,0.18,0.77,0.18c0.74,0,1.5-0.54,2.11-1.13
			c-0.61-5.5,1.8-12.06,6.32-17.19c3.51-3.98,7.77-6.52,11.99-7.22l-10.59-8.99c-1.58,3.75-4.82,6.55-7.63,6.55
			c-2.05,0-3.62-1.5-3.91-3.74c-0.17-1.32,0.08-2.8,0.71-4.27c0.83-2.09,2.06-3.72,3.37-4.87l-14.02-11.9l0.02-43.96L66.57,0.28
			L66.1,0l-0.24,0.76l0.24,0.65l0.95,0.76l0.24,0.66l0.36,1.41l0.83,1.2l-0.48,0l0.59,1.31l-0.36,0.87l-0.48,1.85l0,1.31l-0.47-0.22
			l-0.24,0.76l0.71,1.85l-3.09,6.31l-0.71,1.63l0,0.87l0.47,0.66L64.66,23.32z M92.18,45.34l5.84-0.85l2.61-5.29l1.23-2.49
			l1.23,2.49l2.61,5.29l5.84,0.85l2.75,0.4l-1.99,1.94l-4.22,4.12l1,5.81l0.47,2.74l-2.46-1.29l-5.22-2.74l-5.22,2.74l-2.46,1.29
			l0.47-2.74l1-5.81l-4.22-4.12l-1.99-1.94L92.18,45.34z"/>
		<path fill="#FFBF00" d="M134.86,60.22c-0.04,0.07-0.08,0.13-0.12,0.2C134.78,60.35,134.82,60.29,134.86,60.22z"/>
		<path fill="#FFBF00" d="M165.2,85.42c-0.13,0.22-0.26,0.44-0.39,0.65C164.95,85.86,165.07,85.64,165.2,85.42z"/>
		<path fill="#FFBF00" d="M188.15,101.27c-0.19,0.19-0.38,0.37-0.58,0.56C187.77,101.65,187.97,101.46,188.15,101.27z"/>
		<path fill="#FFBF00" d="M166.92,82.38L166.92,82.38c-0.41,0.77-0.84,1.52-1.27,2.27C166.09,83.91,166.51,83.15,166.92,82.38z"/>
		<path fill="#FFBF00" d="M183.65,98.39c-0.09,0.07-0.18,0.14-0.27,0.21C183.46,98.53,183.55,98.46,183.65,98.39z"/>
		<path fill="#FFBF00" d="M183.7,98.35c0.32-0.25,0.64-0.54,0.98-0.88C184.35,97.8,184.02,98.09,183.7,98.35z"/>
		<path fill="#FFBF00" d="M165.66,84.65c-0.14,0.24-0.27,0.47-0.41,0.7C165.38,85.12,165.52,84.89,165.66,84.65z"/>
		<path fill="#FFBF00" d="M134.53,60.84c-0.03,0.06-0.06,0.12-0.09,0.19C134.46,60.97,134.5,60.91,134.53,60.84z"/>
		<path fill="#FFBF00" d="M147.94,96.17c0.2,1.5,0.93,2.92,3.98,2.92c1.62,0,3.18-0.48,4.65-1.44c0.05-2.33,0.8-4.25,2.33-6.01
			c2.11-2.36,4.58-6.32,6.74-10.33l-2.01-1.7c-0.48,3.23-2.35,6.6-5.47,9.73C155.25,92.28,151.43,94.81,147.94,96.17z"/>
		<path fill="#FFBF00" d="M93.42,72.32c-0.07,0.02-0.15,0.04-0.22,0.06C93.27,72.36,93.34,72.34,93.42,72.32z"/>
		<path fill="#FFBF00" d="M92.38,72.56c-0.09,0.02-0.17,0.04-0.26,0.05C92.21,72.6,92.3,72.58,92.38,72.56z"/>
		<path fill="#FFBF00" d="M98.97,81.5c-0.07,0.1-0.15,0.21-0.22,0.31C98.82,81.71,98.9,81.6,98.97,81.5z"/>
		<path fill="#FFBF00" d="M96.25,71.22c-0.02,0.01-0.04,0.03-0.07,0.04C96.2,71.25,96.22,71.23,96.25,71.22z"/>
		<path fill="#FFBF00" d="M92.98,72.43c-0.13,0.03-0.26,0.06-0.39,0.09C92.72,72.49,92.85,72.46,92.98,72.43z"/>
		<path fill="#FFBF00" d="M93.91,72.18c-0.08,0.02-0.16,0.05-0.25,0.07C93.75,72.23,93.83,72.2,93.91,72.18z"/>
		<path fill="#FFBF00" d="M75.67,47.69c0.37-0.35,0.72-0.69,1.05-0.99C76.4,47.01,76.04,47.34,75.67,47.69z"/>
		<path fill="#FFBF00" d="M77.25,46.22c0.13-0.12,0.26-0.23,0.36-0.33C77.51,45.98,77.38,46.1,77.25,46.22z"/>
		<path fill="#FFBF00" d="M75.4,41.92c-0.64,0.31-1.37,0.65-2.22,0.92C74.04,42.58,74.76,42.23,75.4,41.92z"/>
		<path fill="#FFBF00" d="M76.76,46.67c0.15-0.14,0.3-0.28,0.43-0.4C77.05,46.4,76.91,46.53,76.76,46.67z"/>
		<path fill="#FFBF00" d="M99.58,80.69c-0.14,0.18-0.27,0.35-0.41,0.53C99.31,81.05,99.44,80.87,99.58,80.69z"/>
		<path fill="#FFBF00" d="M96.49,80.97l0,0.76l0.15,0.3c0.44-0.69,0.92-1.36,1.41-2.01l-0.96,0.08L96.49,80.97z"/>
		<path fill="#FFBF00" d="M98.13,82.71c-0.07,0.1-0.14,0.21-0.2,0.31C98,82.92,98.06,82.82,98.13,82.71z"/>
		<path fill="#FFBF00" d="M140.07,84.36c-0.06,0.11-0.12,0.22-0.17,0.33C139.95,84.58,140.01,84.47,140.07,84.36z"/>
		<path fill="#FFBF00" d="M94.38,72.03c-0.05,0.02-0.11,0.04-0.16,0.05C94.28,72.07,94.33,72.05,94.38,72.03z"/>
		<path fill="#FFBF00" d="M95.6,71.57c-0.03,0.01-0.06,0.03-0.09,0.04C95.54,71.59,95.57,71.58,95.6,71.57z"/>
		<path fill="#FFBF00" d="M95.96,71.39c-0.02,0.01-0.03,0.02-0.05,0.03C95.92,71.41,95.94,71.4,95.96,71.39z"/>
		<path fill="#FFBF00" d="M95.25,71.72c-0.03,0.01-0.07,0.03-0.1,0.04C95.18,71.75,95.21,71.73,95.25,71.72z"/>
		<path fill="#FFBF00" d="M94.78,71.9c-0.04,0.01-0.08,0.03-0.12,0.04C94.7,71.93,94.74,71.91,94.78,71.9z"/>
		<path fill="#FFBF00" d="M108.11,96.01c-0.08,0.08-0.16,0.16-0.25,0.23l0,0C107.95,96.17,108.03,96.09,108.11,96.01z"/>
		<path fill="#FFBF00" d="M138.06,89.14c-0.05,0.16-0.09,0.32-0.13,0.48C137.97,89.46,138.01,89.3,138.06,89.14z"/>
		<path fill="#FFBF00" d="M138.37,88.16c-0.05,0.15-0.1,0.3-0.15,0.45C138.27,88.46,138.31,88.31,138.37,88.16z"/>
		<path fill="#FFBF00" d="M137.79,90.12c-0.04,0.17-0.07,0.34-0.11,0.5C137.72,90.45,137.75,90.28,137.79,90.12z"/>
		<path fill="#FFBF00" d="M137.59,91.1c-0.03,0.17-0.06,0.35-0.08,0.52C137.53,91.45,137.55,91.27,137.59,91.1z"/>
		<path fill="#FFBF00" d="M138.73,87.19c-0.06,0.14-0.11,0.28-0.16,0.42C138.62,87.48,138.67,87.33,138.73,87.19z"/>
		<path fill="#FFBF00" d="M115.45,106.26c0.01,0,0.01-0.01,0.02-0.01C115.47,106.26,115.46,106.26,115.45,106.26z"/>
		<path fill="#FFBF00" d="M109.2,94.34c0.02-0.05,0.04-0.1,0.06-0.15C109.24,94.24,109.22,94.29,109.2,94.34z"/>
		<path fill="#FFBF00" d="M139.13,86.24c-0.06,0.13-0.11,0.26-0.17,0.39C139.02,86.5,139.07,86.37,139.13,86.24z"/>
		<path fill="#FFBF00" d="M139.58,85.29c-0.06,0.12-0.12,0.24-0.17,0.36C139.46,85.53,139.52,85.41,139.58,85.29z"/>
		<path fill="#FFBF00" d="M108.13,95.99c0.21-0.22,0.41-0.46,0.59-0.72C108.54,95.53,108.34,95.77,108.13,95.99z"/>
		<path fill="#FFBF00" d="M108.8,95.15c0.04-0.06,0.07-0.12,0.11-0.18C108.87,95.03,108.83,95.09,108.8,95.15z"/>
		<path fill="#FFBF00" d="M109.01,94.77c0.03-0.06,0.06-0.11,0.08-0.17C109.07,94.65,109.04,94.71,109.01,94.77z"/>
		<path fill="#FFBF00" d="M117.81,105.08c0.05-0.03,0.11-0.06,0.16-0.09C117.92,105.02,117.87,105.05,117.81,105.08z"/>
		<path fill="#FFBF00" d="M122.25,101.98c0.35-0.3,0.7-0.62,1.03-0.94C122.95,101.37,122.61,101.68,122.25,101.98z"/>
		<path fill="#FFBF00" d="M118.96,104.4c0.09-0.06,0.18-0.12,0.27-0.18C119.14,104.28,119.05,104.35,118.96,104.4z"/>
		<path fill="#FFBF00" d="M120.09,103.66c0.14-0.09,0.27-0.2,0.4-0.29C120.36,103.47,120.22,103.57,120.09,103.66z"/>
		<path fill="#FFBF00" d="M121.19,102.86c0.19-0.15,0.38-0.31,0.57-0.47C121.57,102.55,121.38,102.71,121.19,102.86z"/>
	</g>
	<g>
		<path fill="#FFFFFF" d="M140.37,55.82c-2.16,0-4.94,2.64-6.21,5.83c-0.56,1.28-0.72,2.48-0.6,3.44c0.17,1.36,1.01,2.32,2.29,2.32
			c2.16,0,4.95-2.56,6.22-5.75c0.56-1.28,0.71-2.56,0.59-3.52C142.48,56.7,141.65,55.82,140.37,55.82z"/>
		<path fill="#FFFFFF" d="M160.49,103.32c0.7,0.7,1.54,1.29,2.48,1.7c1.61,0.72,3.33,1.04,5.01,1.04c2.32,0,4.64-0.56,6.76-1.52
			c1.28,0.64,2.59,0.88,3.95,0.88c3.28,0,6.59-1.6,8.89-3.6c4.09-3.68,5.78-8.55,6.28-10.95c0.45-1.89-1.94-3.48-3.13-3.48
			c-0.32,0-0.55,0.11-0.62,0.37c-0.34,1.12-1.98,5.19-4.01,8.07c-1.43,1.92-2.89,3.04-3.88,3.44c-0.23,0.08-0.44,0.12-0.61,0.12
			c-0.17,0-0.29-0.04-0.34-0.12c-0.18-0.16-0.13-0.4,0.06-0.8c1.08-2.16,2.11-4.79,1.63-8.55c-0.57-4.47-3.75-6.87-5.84-9.43
			c-0.85-1.04-1.82-1.76-1.69-3.2c0.12-0.96,0.62-1.44,1.1-2c0.57-0.56,1.23-1.04,1.64-2.16c0.75-1.68,0.53-3.36-1.02-4.23
			c-0.52-0.26-1.09-0.39-1.66-0.39c-1.7,0-3.42,1.14-3.79,3.35c-0.1,0.48-0.21,0.88-0.94,2.64c-2.64,6.23-7.13,14.3-10.62,18.22
			c-1.53,1.76-2.02,3.6-1.9,5.75c0,0,0,0,0,0c-1.76,1.34-3.88,2.23-6.3,2.23c-3.28,0-5.38-1.44-5.64-4.79l-0.03-0.88
			c6.61-2.08,16.84-10.15,15.83-18.14c-0.4-3.12-2.99-3.99-5.7-3.99c-10.23,0-20.24,12.94-18.96,23.01
			c0.02,0.17,0.05,0.34,0.08,0.51c-1.14,1.31-2.44,2.21-3.83,2.21c-0.47,0-0.95-0.1-1.44-0.32c-1.18-0.48-2.36-2.68-1.53-5.59
			c1.98-6.58,5.68-13.74,9-20.83c0.18-0.38,0.07-1.03-0.21-1.03c-0.06,0-0.12,0.03-0.19,0.1c-1.23,1.15-4.88,2.17-7.28,2.17
			c-0.32,0-0.62-0.02-0.89-0.06c-0.03,0-0.07-0.01-0.1-0.01c-0.45,0-0.7,0.45-0.75,0.72c-4.08,9.76-6.8,17.12-7.35,19.84
			c-0.37,1.33-0.49,2.65-0.44,3.89c-2.14,1.98-4.78,3.54-7.71,4.88c2.24-9.68,5.17-20.66,10.71-30.52c0.18-0.31,0.08-0.87-0.17-0.87
			c-0.05,0-0.11,0.02-0.17,0.07c-1.14,0.94-4.91,1.87-7.06,1.87c-0.32,0-0.61-0.02-0.85-0.07c-0.04-0.01-0.07-0.01-0.1-0.01
			c-0.37,0-0.58,0.39-0.62,0.61l-0.58,1.36c0,0-0.7-1.76-3.9-1.76c-0.04,0-0.07,0-0.11,0c-6.77,0-13.58,7.47-16.66,15.1
			c-1.04,2.52-1.91,6.3-1.86,9.69c-2.07,1.81-4.57,3.27-7.32,4.53c2.24-9.68,5.17-20.66,10.72-30.52c0.18-0.31,0.08-0.87-0.17-0.87
			c-0.05,0-0.11,0.02-0.17,0.07c-1.14,0.94-4.91,1.87-7.06,1.87c-0.32,0-0.61-0.02-0.85-0.07c-0.04-0.01-0.07-0.01-0.1-0.01
			c-0.37,0-0.58,0.39-0.62,0.61l-0.58,1.36c0,0-0.7-1.76-3.9-1.76c-0.04,0-0.07,0-0.11,0c-6.77,0-13.58,7.47-16.66,15.1
			c-0.25,0.6-0.49,1.28-0.71,2c-1.05,3.01-4.9,10.71-9.11,10.71c-0.48,0-0.97-0.1-1.46-0.32c-1.18-0.48-1.55-2.68-0.71-5.59
			c0,0,1.79-5.8,2.48-8.13c0.22-0.64,0.5-1.43,0.79-2.28c0.14-0.38,0.28-0.77,0.42-1.18l0.06-0.17c3.6-1.71,6.41-4,7.94-5.51
			c2.21-2.07,0.65-6.64-0.6-6.64c-0.13,0-0.25,0.05-0.37,0.15c-0.58,0.49-2.01,1.53-3.79,2.67l0.27-0.79l3.81-10.15
			c2.49-6.65,5.04-9.86,7.31-12.46c0.96-1.11,3.54-3.55,4.7-4.59l0.07-0.06c0.4-0.33,1.47-1.2,1.65-2.52
			c0.19-1.36-0.14-2.17-1.49-2.17c-0.81,0-1.57,0.36-2.45,0.79c-1.3,0.62-2.92,1.4-5.28,1.4c-1.55,0-3.34-0.5-5.6-1.14
			c-3.6-1.01-8.53-2.39-15.47-2.39c-5.02,0-9.84,1.43-13.57,4.02c-4.04,2.81-6.62,6.89-7.27,11.5c-0.12,0.85,1.14,1.28,2.46,1.28
			c1.38,0,2.83-0.46,2.87-1.38c0.42-2.97,3.55-8.58,12.44-8.58c4.49,0,8.32,1.69,11.39,3.05c0.17,0.07,0.33,0.15,0.5,0.22
			c-5.16,3.65-10.64,10.54-21.69,26.3c-0.05-0.01-0.11-0.01-0.16-0.02c-3.26-0.4-7.66-1.41-12.11-1.41c-6.44,0-11.2,1.41-15.73,5
			c-4.4,3.49-7.24,8.38-8,13.76c-1.12,7.97,3.21,13.54,10.53,13.54c11.71,0,17.68-7.83,27.64-22.84c3.1,0.66,6.7,1.34,8.38,1.34
			c0.31,0,2.14,0.16,2.45,0.16c0,0,0.01,0,0.01,0l0.16,0.05c-0.1,0.28-0.19,0.55-0.29,0.84c-2.45,7.07-3.02,9.45-3.02,9.45
			c-0.48,1.73-0.76,3.44-0.57,4.95c0.51,4.04,3.65,6.72,7.99,6.72c0.13,0,0.25,0,0.38-0.01c4.99-0.18,8.81-2.79,11.51-6.05
			c0.43,1.22,1.12,2.22,2.14,2.85c0.78,0.48,1.77,0.72,2.73,0.72c3.36,0,7.19-2.48,8.85-4.55c0,0-0.39,2-0.96,4.74
			c-10.59,3.57-22.18,6.43-27.09,15c-0.95,2.31-1.11,4.24-0.88,6c0.56,4.36,4.2,7.81,9.23,8.51c0.72,0.11,1.49,0.16,2.3,0.16
			c5.46,0,12.76-2.54,17.13-8.93c0.01,0.08,0.01,0.17,0.02,0.25c0.55,4.36,4.2,7.81,9.23,8.51c0.72,0.11,1.49,0.16,2.3,0.16
			c6.27,0,14.95-3.34,18.85-12c1.79-3.96,3.07-9.64,4.54-16.16c3.46-1.29,6.81-3.27,9.56-5.93c1.25,2.63,3.89,4.27,7.28,4.27
			c0.12,0,0.25,0,0.38-0.01c3.69-0.13,6.58-1.56,8.81-3.6c2.38,2.97,6.23,4.28,10.38,4.28C153.87,105.98,157.5,105.12,160.49,103.32
			z M164.36,101.28c1.58,0,3.78-0.73,4.51-3.29c0.84-2.8-0.63-4.31-1.68-5.03c2.17-2.4,4.3-6.39,5.43-9.43
			c0.99,1.52,1.65,3.52,1.94,5.83c0.18,1.44,0.21,2.88,0.08,4.39c-0.55,4.98-2.95,9.03-7.5,9.03c-0.04,0-0.09,0-0.13,0
			c-1.28,0-2.88-0.64-3.56-1.6C163.7,101.25,164.02,101.28,164.36,101.28z M157.08,76.58c0.88,0,1.42,0.48,1.52,1.28
			c0.67,5.27-7.83,11.27-11.89,13.26C147.54,87.61,152.84,76.58,157.08,76.58z M11.98,100.85c-5.34,0-7.58-2.5-6.85-7.64
			c0.82-5.85,5.79-12.11,17.25-12.11c3.64,0,6.58,0.8,9.18,1.52C23.39,94.97,18.21,100.85,11.98,100.85z M52.12,77.94
			c-1.65,0.31-2.45,0.31-3.96,0.31c-1,0-3.87-0.26-6.44-0.69c3.52-4.96,6.59-10.14,10.31-15.06c0.97-1.26,1.86-2.37,2.68-3.36
			c1.84-2.16,3.86-4.24,6.16-6.21c1.2-0.89,2.38-1.53,3.68-2.09c-2.54,2.39-4.08,4.78-5.61,8.52
			C57.99,61.85,52.12,77.94,52.12,77.94z M74.62,119.54c-1.61,4.23-5.64,6.61-9,7.52c-0.78,0.22-1.55,0.34-2.26,0.34
			c-3.17,0-5.43-2.21-4.16-6.9c1.11-4.13,10.28-8.35,18.05-11.04C76.37,113.39,75.36,117.58,74.62,119.54z M80.72,93.76
			c-0.69,2.63-3.13,3.82-5.02,3.82c-0.38,0-0.74-0.05-1.06-0.14c-1.16-0.32-1.86-1.44-2.06-3.04c-0.23-1.84,0.16-4.39,1.36-7.51
			c2.54-7.03,7.04-9.99,9.83-9.99c1.36,0,2.37,1.17,1.58,2.96C82.99,86.02,80.72,93.76,80.72,93.76z M103.29,119.54
			c-1.61,4.23-5.64,6.61-9,7.52c-0.78,0.22-1.55,0.34-2.26,0.34c-3.17,0-5.43-2.21-4.16-6.9c1.11-4.13,10.28-8.35,18.05-11.04
			C105.05,113.39,104.04,117.58,103.29,119.54z M106.77,105.45c-8.78,2.96-18.24,5.43-24.02,11.08c0.78-2.86,1.51-6.08,2.29-9.55
			c3.21-1.19,6.31-2.98,8.94-5.36c0.43,1.25,1.13,2.29,2.16,2.93c0.78,0.48,1.77,0.72,2.73,0.72c3.36,0,7.19-2.48,8.85-4.55
			C107.72,100.71,107.34,102.71,106.77,105.45z M114.02,79.86c-2.35,6.16-4.62,13.9-4.62,13.9c-0.69,2.63-3.13,3.82-5.02,3.82
			c-0.38,0-0.74-0.05-1.06-0.14c-1.16-0.32-1.86-1.44-2.06-3.04c-0.23-1.84,0.16-4.39,1.36-7.51c2.54-7.03,7.04-9.99,9.83-9.99
			C113.8,76.9,114.81,78.07,114.02,79.86z"/>
		<polygon fill="#FFFFFF" points="101.85,54.53 96.27,57.47 97.33,51.25 92.81,46.84 99.06,45.93 101.85,40.27 104.65,45.93 
			110.9,46.84 106.38,51.25 107.44,57.47 		"/>
	</g>
</g>
</svg>
